<?xml version="1.0" encoding="UTF-8"?>
<svg version="1.1" viewBox="0 0 2048 1446" width="1280" height="1280" xmlns="http://www.w3.org/2000/svg">
<path transform="translate(0)" d="m0 0h2048v1446h-2048z" fill="#FDFDFD"/>
<path transform="translate(996,89)" d="m0 0 4 2 29 44 10 15 36 57 12 20 17 28 14 24 9 16 13 23 16 30 10 19 18 36 15 34 12 30 12 36 5 21 3 17 1 1h107l9-4 7-9 7-15 8-30 7-37 5-22 6-15 6-10 7-6 7-3h10l8 4 6 7 6 15 4 15 3 22 3 38 4 81 3 32 2 11 9-37 7-30 5-13 7-10 8-5h10l7 4 5 10 4 17 4 35 2 38 2 74 1 54 3 83 3 37 3 23 1 2 6-50 5-56 4-78 4-105 5-135 5-119 3-54 4-48 4-36 5-33 5-18 7-13 8-6h12l6 4 6 9 5 12 4 21 4 40 3 53 1 28 2 147 2 75 1 30 3 42 1 7 5-23 5-30 5-18 7-11 6-5 2-1h12l7 4 7 8 6 12 7 21v3l2-1 5-9 9-10 9-6 12-5 7-1 86-1 5-7 10-6 4-1h9l9 3 8 7 5 9 1 4v8l-4 10-7 8-8 4-4 1h-8l-11-4-5-4-4-6h-86l-9 3-5 4-6 10-8 14-7 6-10 2-8-3-5-4-7-14-9-24-1-4-2-1-1 8-11 58-5 15-7 10-5 4-4 2h-10l-6-4-5-6-4-12-4-25-2-23-2-44-1-45-2-152-1-46-3-59-4-36-2-19h-2l-2 14-5 32-3 29-3 43-5 94-3 59-3 85-1 42-4 107-3 62-6 87-4 42-4 24-5 19-4 10-5 6-7 4h-8l-6-3-7-8-4-10-3-14-4-37-3-44-2-52-4-144-3-58-1-10-4 13-8 37-6 18-7 13-8 6-3 1h-11l-6-4-6-8-4-13-3-20-3-40-4-72-3-35-4-28-3-13-3 3-5 15-6 29-9 42-5 16-7 16-6 10-11 11-9 5-6 2-10 1-104 1-2 12-4 26-6 21-9 24-10 20-10 16-10 13-11 13-19 19-14 11-16 11-22 12-21 9-22 7-27 5-19 2h-26l-26-3-24-5-18-6-22-9-23-13-14-10-10-8-12-11-2-1v-2h-2l-7-8-8-9-10-13-11-17-12-23-6-15-8-25-4-21-2-17v-6l-109 1-9 3-7 6-8 14-6 9-6 5-10 2-8-3-8-9-6-15-7-20-1-4h-2l-1 11-8 44-6 23-5 10-7 7-6 3h-10l-8-6-5-10-4-19-3-31-2-31-2-79-2-137-2-70-2-36-3-31-3-17-1-3-2 8-4 27-5 44-3 40-4 72-9 229-4 113-4 76-5 59-5 42-5 24-6 14-7 8-4 2h-9l-7-4-6-8-5-15-4-24-3-36-2-40-4-144-3-69-2-30-1-8-3 9-10 44-5 15-7 11-6 5-5 2h-10l-7-4-6-10-4-12-4-29-2-30-4-84-3-29-5-26-3-8-5 11-4 15-7 37-7 30-5 15-8 16-7 10-9 8-10 5-13 2-84 1-7 8-6 4-7 2h-7l-10-3-5-3-7-10-2-6v-9l3-9 8-9 7-4 4-1h9l9 3 9 8 2 3h86l8-3 7-8 7-14 8-26 9-47 6-23 5-13 4-6 8-8 7-3h10l8 4 7 8 5 12 3 11 4 28 3 34 5 91 3 32v5h2l2-10 5-21 7-32 6-16 6-10 7-5 3-1h9l7 4 6 12 3 11 3 23 2 30 2 59 2 86 2 56 4 66 3 31 3-14 5-39 4-52 3-56 6-135 6-179 4-85 5-68 5-54 4-26 5-20 5-13 8-9 4-2h11l6 4 6 7 5 14 4 19 4 35 2 25 1 19 2 87 2 142 2 65 2 30 2 17v5h2l1-11 6-37 5-19 5-12 6-7 5-3h12l6 3 5 5 6 9 7 18 4 11v2h2l2-7 9-11 9-7 12-5 10-2h109l3-21 8-29 10-29 12-30 12-26 11-23 19-38 12-22 16-29 14-24 12-21 8-13 13-22 14-22 15-24 22-34 26-39z" fill="#CE022A"/>
<path transform="translate(1305,837)" d="m0 0h30l21 3 15 5 14 7 9 7 11 11 9 14 7 16 6 22 3 22 1 14v22l-3 29-6 24-7 19-9 15-11 12-10 9-14 8-22 7-20 3h-36l-21-2-3-1v-260l9-3 14-2z" fill="#CE022A"/>
<path transform="translate(1149,835)" d="m0 0h11l13 2 12 4 11 7 10 9 6 7 10 17 6 16 6 27 3 20 1 17v17l-2 23-5 30-6 21-8 16-6 10-11 12-8 6-16 8-13 3h-24l-12-3-17-9-10-9-9-11-9-16-7-20-5-22-3-22-1-15v-17l2-23 5-25 5-17 6-15 11-18 12-13 15-10 10-4 8-2z" fill="#CE022A"/>
<path transform="translate(958,835)" d="m0 0h12l14 2 14 5 10 7 10 9 9 13 8 16 5 15 5 22 3 26v35l-3 30-6 26-5 15-9 17-6 8-8 9-10 7-15 7-14 3h-22l-12-3-16-8-10-9-9-10-8-14-7-16-6-24-3-17-2-25v-21l2-22 6-29 6-18 11-21 9-11 8-8 14-9 13-5z" fill="#CE022A"/>
<path transform="translate(603,837)" d="m0 0h31l17 2 12 3 19 9 10 9 6 7 7 14 3 13v19l-3 13-8 15-10 11-10 7-6 3-1 2 6 1 13 7 10 9 8 9 6 14 4 17v11l-3 18-5 13-7 11-8 9-14 10-15 6-20 5-17 2h-43l-22-2-2-1v-260l3-2 21-3z" fill="#CE022A"/>
<path transform="translate(851,539)" d="m0 0h16l10 3 9 6 7 7 6 10 1 5h2l2-7 8-11 9-8 8-4 5-1h18l10 3 11 8 6 7 5 10 3 13v15l-3 12-8 16-10 14-14 15-14 13-10 8-12 9-12 8h-5l-11-7-9-7-13-10-15-14-14-14-8-11-7-11-5-13-2-12 1-15 4-13 6-9 7-7 8-5z" fill="#FDFDFD"/>
<path transform="translate(752,838)" d="m0 0h50l1 1 1 220 68 1v44h-120l-1-1v-264z" fill="#CE022A"/>
<path transform="translate(584,1156)" d="m0 0h17l19 3 13 5 9 6 7 7 7 11 7 21 2 11 1 11v19l-2 18-5 19-8 16-9 11-13 9-16 5-5 1-15 1h-12l-16-1-3-1-1-2v-165l2-2z" fill="#CE022A"/>
<path transform="translate(1248,1155)" d="m0 0h13l13 4 10 6 8 9 8 16 5 16 2 11 1 12v26l-3 22-6 20-7 14-7 8-10 7-12 4-14 1-12-2-12-6-9-9-8-13-6-16-3-15-1-9v-37l3-17 4-13 10-19 5-6 12-9 11-4z" fill="#CF022A"/>
<path transform="translate(728,1155)" d="m0 0h13l13 4 10 6 9 10 7 14 5 18 2 9 1 10v31l-3 19-5 19-8 16-8 9-9 6-12 4-11 1-14-2-9-4-8-6-7-8-6-10-6-17-3-16-1-10v-33l5-25 6-15 7-11 5-6 10-7 8-4z" fill="#CF022A"/>
<path transform="translate(809,1157)" d="m0 0h30l5 10 11 29 15 38 13 35-1-22-1-20v-69l1-1h28l1 1v166l-2 5h-29l-5-10-10-25-11-28-8-20-9-27 1 37v71l-3 2h-24l-3-1v-170z" fill="#CE022A"/>
<path transform="translate(1329,1157)" d="m0 0h30l4 8 8 21 13 33 18 48v2h2l-1-2-2-34v-75l1-1h28l1 5-1 166-3 1h-26l-3-3-6-14-11-28-12-30-5-13-7-23 1 36v74l-1 1h-28l-1-1v-170z" fill="#CE022A"/>
<path transform="translate(965,1157)" d="m0 0h39l4 16 8 43 6 29 8 43 7 35v6h-31l-3-8-6-30-1-1h-29l-2 14-5 22-2 3h-29l-2-1 2-13 10-45 16-74 8-36z" fill="#CF022A"/>
<path transform="translate(961,880)" d="m0 0 8 1 6 4 6 7 5 12 4 15 3 24v55l-3 24-5 19-7 14-6 5-6 2-9-1-9-6-6-10-4-11-4-17-2-16-1-14v-30l2-24 5-24 4-11 6-10 7-6z" fill="#FDFDFD"/>
<path transform="translate(1151,880)" d="m0 0 10 2 6 5 6 10 5 16 4 24 1 20v27l-2 27-3 17-5 17-5 9-7 6-5 2-10-1-8-6-4-5-4-8-5-17-3-18-2-35 2-36 3-18 5-17 5-10 6-7z" fill="#FDFDFD"/>
<path transform="translate(1325,879)" d="m0 0h12l10 3 6 4 8 8 8 16 4 13 3 22v44l-3 24-6 20-7 14-8 9-9 5-5 2-12 1-5-2v-170l1-12z" fill="#FDFDFD"/>
<path transform="translate(1032,1157)" d="m0 0h93l1 1v30l-1 1-29 1-1 137-1 2h-31l-1-1-1-115v-23l-27-1-2-1z" fill="#CE022A"/>
<path transform="translate(1144,1157)" d="m0 0h32l1 4-1 167-1 1h-31l-1-1v-170z" fill="#CE022A"/>
<path transform="translate(1249,1185)" d="m0 0h8l5 3 4 6 3 9 3 22v33l-2 18-3 13-5 9-5 3h-8l-5-3-5-8-5-19-2-15v-23l3-23 5-16 5-7z" fill="#FDFDFD"/>
<path transform="translate(730,1185)" d="m0 0h7l5 3 6 10 3 14 1 12v36l-2 17-3 12-3 6-5 5-2 1h-8l-7-6-5-11-3-13-2-22v-11l2-23 4-16 5-9 4-4z" fill="#FDFDFD"/>
<path transform="translate(596,1184)" d="m0 0h11l8 3 7 8 4 8 3 13 1 8v34l-3 18-5 13-4 6-9 6-3 1h-9l-2-3v-110z" fill="#FDFDFD"/>
<path transform="translate(614,986)" d="m0 0h11l13 2 8 4 9 8 5 10 3 11v9l-2 10-4 10-8 9-10 5-10 2h-14l-1-1-1-24v-41z" fill="#FDFDFD"/>
<path transform="translate(615,877)" d="m0 0h20l8 3 8 7 4 8 1 4v21l-4 11-8 10-10 5-3 1h-17l-1-3v-38l1-28z" fill="#FDFDFD"/>
<path transform="translate(752,838)" d="m0 0h50l1 1 1 220 68 1v44h-120l-1-1v-264zm1 1-1 1v47l1 207 6 1v2l7 2 1 2-4 2h108v-42l-67-1-1-5-1-216z" fill="#E90136"/>
<path transform="translate(829,715)" d="m0 0h3v2l6 3v2l3 1v2h3l7 8 7 4v2l4 2 7 4v2l9 3v2l4 1 16 8 4 1 8 4v2h6l10 4 7 1 2 2 16 3 4 2 13 1 6 3v2l9-1h3l8 2h15v-2h-2l1-2 2 1 1-2 7 1-2 3-5-1v2l22-3-3-3 4-2 8-2h6l-2 4-4-1-1 2 9-1 9-2 4 1-22 5-21 3-10 1h-26l-26-3-24-5-18-6-22-9-23-13-14-10-10-8-12-11-2-1v-2h-2l-1-4z" fill="#E80135"/>
<path transform="translate(1032,1157)" d="m0 0h93l1 1v30l-1 1-29 1-1 137-1 2h-31l-1-1-1-115v-23l-27-1-2-1zm1 1v22l3-3 5 5 2 5 18 1 1 1 2 54v27l-1 31v15l1 2h2v2l4 1v6h23l1-105v-25l1-8 2-1 28-1v-29z" fill="#E90136"/>
<path transform="translate(561,843)" d="m0 0 2 1 1 16v228l1 5 3 1v2h3l1 2 6 3v2l12 1v-1h22l1 1h10l21-2h6v1l-22 3h-43l-22-2-2-1z" fill="#E80135"/>
<path transform="translate(982,1192)" d="m0 0 2 2 5 33 5 30v6h-23l-1-3 8-42z" fill="#FDFDFD"/>
<path transform="translate(1144,1157)" d="m0 0h32l1 4-1 167-1 1h-31l-1-1v-170zm1 1v32l-1 98v24l4 5 6 8 1 2h20v-169z" fill="#E90136"/>
<path transform="translate(1269,843)" d="m0 0h1l1 6h1v230l1 12 3 5 8 3 7 4 12-1 3 2h17l21-1v1l-15 2h-36l-21-2-3-1z" fill="#E90136"/>
<path transform="translate(882,1157)" d="m0 0h28l1 1v166l-2 5h-29l-5-10-4-10 1-3 6 6 4 7 9 4h9 3l4-1 1-1 1-144v-19l-26 1-1 68h-1v-69z" fill="#E80135"/>
<path transform="translate(561,1161)" d="m0 0 2 1 1 20h1v11h-1v112l2 11 5 5v2l7 1v2l2 1h19l1-1h14l1-3 5-2 5-1 1 2 5-1-4 3-19 5-15 1h-12l-16-1-3-1-1-2z" fill="#E80135"/>
<path transform="translate(1328,1158)" d="m0 0h1l1 62v90h2l4 8 4 4 3 1 2 3h11v-71l-1-29-1-12h3l1 40v74l-1 1h-28l-1-1z" fill="#E90136"/>
<path transform="translate(1825,562)" d="m0 0h19l10 5 3 3 4 1v2l11 2h3l8-2h9l1 3-6 4-7 2h-8l-11-4-5-4-4-6-86-1 2-2 14-1 2-1z" fill="#E80135"/>
<path transform="translate(911,1082)" d="m0 0 5 3 4 3v2l5 1 8 5 4 1 9 3 17 1h8v-2l10-1h3 6v-2l4-1 4-3h4v2l2 1-15 8-10 3-7 1h-22l-12-3-16-8-10-9z" fill="#E80135"/>
<path transform="translate(210,559)" d="m0 0h14v1l-16 2-2 1 21-2 5 1 4-2 5 1 4-1-3 3-8 3-10 1h-84l4-2 21-1h7l-11-1-2-2h19l26-1z" fill="#E80135"/>
<path transform="translate(809,1157)" d="m0 0h30v1l-29 1v54l1 37-1 34v32l5 2 1 3 4 2 8 2 9 2-2 2h-24l-3-1v-170z" fill="#E90136"/>
<path transform="translate(1098,1082)" d="m0 0 6 4 24 12 11 2 2 1h15l10-1 1-2 5 1 1 3h5l-2 2-13 3h-24l-12-3-17-9-10-9z" fill="#E80135"/>
<path transform="translate(857,313)" d="m0 0 5 1-1 5-3 1-1 5-7 15h-2l-1 4-5 12-8 15-6 11-7 14-4 2 1-5h2v-3l2-1-1-2 1-3h2l1-6h2l1-5 2-6 4-3 8-17-1-1-1-2 12-23z" fill="#E80135"/>
<path transform="translate(698,1311)" d="m0 0 5 4 14 7 9 2h9l9-2 7-2h6l1 4-8 4-7 2-11 1-14-2-9-4-8-6-5-5 1-2z" fill="#E80135"/>
<path transform="translate(1402,1157)" d="m0 0h28l1 5-1 166-3 1h-26l-3-3-2-6 2-4 1 3 6 2 5 4v2h19l-1-53v-113l1-3h-27z" fill="#E80135"/>
<path transform="translate(1522,587)" d="m0 0h1l2 38 2 74 1 54 1 30v25h-1l-2-39-3-112v-31l-1-21z" fill="#E90136"/>
<path transform="translate(1220,1314)" d="m0 0 5 3 8 4 8 2 11 1 9-2 3-1h10l2 2 2 1-8 4-7 2-14 1-12-2-12-6-3-5z" fill="#E90136"/>
<path transform="translate(1336,562)" d="m0 0 16 1-2 2-14 2-104 1-2 12-2 14h-1l1-15 1-10 2-3 6-1 84-1z" fill="#E90136"/>
<path transform="translate(748,561)" d="m0 0 1 2h5v1l9 1v2l-114 1 4-2 7-1 72-1v-1h16z" fill="#E90136"/>
<path transform="translate(930,1311)" d="m0 0 5 5 4 6 8 4h12l-1 3h-29l-2-1 2-13z" fill="#E80135"/>
<path transform="translate(686,1192)" d="m0 0 1 3-4 15-2 13v42l2 9 1 6 1 5 4-1-1 6-3 3-4-14-3-21v-33l5-25z" fill="#E90136"/>
<path transform="translate(96,569)" d="m0 0 7 3 8 4 3-1 13-1 4 4-11 4h-7l-10-3-5-3-1-4z" fill="#E80135"/>
<path transform="translate(857,313)" d="m0 0 5 1-1 5-3 1-1 5-7 15h-5l-1 4-4 2 2-6 14-26z" fill="#D8022E"/>
<path transform="translate(521,638)" d="m0 0 3 1v2l12 6 14-1-2 3 1 2-6 3h-10l-8-6-4-7z" fill="#E70135"/>
<path transform="translate(842,344)" d="m0 0 1 4-9 17-4 5-2 5-1 3h-2l-1 6h-2l1 6h-3v3l-5 2 2-6 21-42z" fill="#D4022D"/>
<path transform="translate(1439,634)" d="m0 0 3 2v3l6 2 4 2h7l6-1 1 5-6 3h-11l-6-4-6-8 1-3z" fill="#E80135"/>
<path transform="translate(1e3 1313)" d="m0 0 2 3 1 2 6 2 1 3 5 1 3 2h13l2-8h1l1 11h-31l-3-8z" fill="#E90136"/>
<path transform="translate(748,1198)" d="m0 0 3 4 2 10 2 19v13l-2 27v6h-2l-2 10h-1l1-10 2-17v-36l-2-17z" fill="#E90136"/>
<path transform="translate(1636,637)" d="m0 0 4 5 2 1v2l4 1 10 1 4 1v2l2 1-6 3h-10l-6-4-5-6-1-5z" fill="#E80135"/>
<path transform="translate(312,502)" d="m0 0 2 4v11l2 35 1 7v12l1 1v6l-1 1 1 15 2 4v13l-2 1-2-17-2-30-2-45z" fill="#E90136"/>
<path transform="translate(327,634)" d="m0 0 3 3v2h3l3 4h14l2 2v3l-5 2h-10l-7-4-5-8v-2h2z" fill="#E80135"/>
<path transform="translate(675,1088)" d="m0 0h5l1 2 2 1-12 6-9 3-9-1 2-4 4-1v-2l9-1h2v-2z" fill="#E80135"/>
<path transform="translate(1401,1158)" d="m0 0h1l1 60 1 18 1 11v26h-2l-1-4h2l-1-2-2-34z" fill="#E90136"/>
<path transform="translate(1523,931)" d="m0 0 5 1 5 2h11l4 4-7 4h-8l-6-3-5-5z" fill="#E80135"/>
<path transform="translate(453,379)" d="m0 0h1l1 30h-1l-1 16-1 43v19h-2v24h-1v-27l3-81z" fill="#E90136"/>
<path transform="translate(595,1184)" d="m0 0h1v115l1 2 9 1v1h-10l-2-2-1-114z" fill="#E90136"/>
<path transform="translate(1709,596)" d="m0 0 9 3v2l14-3 3 3-4 4-10 2-8-3-5-4z" fill="#E80135"/>
<path transform="translate(411,931)" d="m0 0h3v2l9 2 9-1 3 4-6 4h-9l-7-4-3-3z" fill="#E70135"/>
<path transform="translate(597,597)" d="m0 0 9 3 13-2v2l3 1-4 4-10 2-8-3-4-5z" fill="#E80135"/>
<path transform="translate(1265,1192)" d="m0 0 2 1 4 11 1 5 2 2v5l-1 2v43l-2 18-2 7h-1l1-10 2-18v-33l-3-22z" fill="#E90136"/>
<path transform="translate(1068,940)" d="m0 0 2 3v5l1 4-1 13-1 3v35h-1l-2-23v-17z" fill="#E90136"/>
<path transform="translate(959,144)" d="m0 0 1 2-1 4h-2l-2 5-3 5-6 8-4 8-3 5h-2l-2 4-7 13h-2l-1 5-3 1 2-5 11-18 16-25z" fill="#E90136"/>
<path transform="translate(1427,927)" d="m0 0h1l3 31v22l-2 21-2-4 1-5v-44l-1-1z" fill="#E90136"/>
<path transform="translate(860,661)" d="m0 0 4 2 8 7 15 11 9 6 3 3-4-1-9-4-5-4-9-7-3-1-3-3v-2l-4-2z" fill="#E60135"/>
<path transform="translate(996,89)" d="m0 0 4 2 7 11-2 2-9-4-6-1-2 4v-3z" fill="#E80135"/>
<path transform="translate(1373,924)" d="m0 0 2 3 2 11 1 15 1 3-1 6 1 12 1 2-2 3-2 21h-1v-55l-2-16z" fill="#E90136"/>
<path transform="translate(625,1200)" d="m0 0 2 2 3 10 3 20-1 9-2 28-2 7h-1l1-11 1-7v-34l-3-18z" fill="#E90136"/>
<path transform="translate(1373,1087)" d="m0 0h3l4 4-12 6-6 1-2-1 1-5 2-1 3-2 6-1z" fill="#E80135"/>
<path transform="translate(939,533)" d="m0 0h8l1 2-5 1 12 2 9 2 6 4 1 4-12-6-7-2h-23l3-2 5-1v-2z" fill="#E80135"/>
<path transform="translate(1498,572)" d="m0 0h1l2 23 1 32 1 3-1 30h-1l-2-53-1-18z" fill="#E90136"/>
<path transform="translate(781,629)" d="m0 0 2 4v3l2 2 4 6 2 5-1 4-3-6-2 2-2-3-1 3-5-13 1-5h3z" fill="#E60134"/>
<path transform="translate(1871,528)" d="m0 0h9l4 2v3l-5 2-3 2-2 1h-7v-2l9-2-8-1v-2l-5 1 4-3z" fill="#E80135"/>
<path transform="translate(909,554)" d="m0 0v3l-5 8-2 5h-2l-5-10 1-5 1 2 2-1h8z" fill="#E80135"/>
<path transform="translate(1045,930)" d="m0 0h1l2 20v35l-2 23h-1v-11l1-23v-17l-1-10z" fill="#E90136"/>
<path transform="translate(1149,835)" d="m0 0h11l13 2 12 4 4 3-5-1-9-3h-8l-2-2h-21l-10 2h-5l3-2 8-2z" fill="#E90136"/>
<path transform="translate(570,527)" d="m0 0h12l6 3 5 5v3h-2l-4-4-3-1-2 1-7-2-4-2v-1l-3-1z" fill="#E70135"/>
<path transform="translate(986,103)" d="m0 0 1 2-3 6-3 5h-2l-1 4-3 4-3 5-5 8-5 7h-2l2-5z" fill="#E90136"/>
<path transform="translate(618,984)" d="m0 0h18l5 5-27-3v14l-1 13h-1v-25l1-3z" fill="#E90136"/>
<path transform="translate(1190,845)" d="m0 0 5 2 12 11 5 6-2 3-7-9-7-3v-2l-3-1-4-6z" fill="#E40134"/>
<path transform="translate(1128,742)" d="m0 0h9l-4 4-12 8-2-1v-3h-2v-2l5-1v-2l6-1z" fill="#E50134"/>
<path transform="translate(1683,527)" d="m0 0h12l7 4 4 5-2 2-5-4-6-1-6-2h-2v-2z" fill="#E60134"/>
<path transform="translate(295,391)" d="m0 0h10l8 4 4 5-2 2-5-4-7-1-6-2v-2z" fill="#E50134"/>
<path transform="translate(1510,870)" d="m0 0h1l2 18 1 4 2 17 3 1v7l-1-2-3 1-3-17-2-17z" fill="#E80135"/>
<path transform="translate(992,932)" d="m0 0 2 2 1 9-1 56-1 9h-1z" fill="#E90136"/>
<path transform="translate(828,367)" d="m0 0h2v5l-3 6h-2l-1 6h-2l1 6h-3v3l-5 2 2-6 8-16z" fill="#D7022E"/>
<path transform="translate(1110,850)" d="m0 0 1 2h-2l-2 4-5 6-5 4-12 20-3 4 1-5 10-17 9-11z" fill="#E90136"/>
<path transform="translate(111,528)" d="m0 0h9l4 2-3 1 2 2h-4v2l2 1h-3v-2h-11l1-3-3-1z" fill="#E70135"/>
<path transform="translate(878,946)" d="m0 0h1l1 23-2 2 2 1-1 24h-1l-1-15v-21z" fill="#E90136"/>
<path transform="translate(1093,762)" d="m0 0 3 1 3 3-16 7h-3l1-2 5-2-1-2 5-4z" fill="#E80135"/>
<path transform="translate(1337,558)" d="m0 0 2 2-18 2-2 1h-27v-1l24-2z" fill="#E90136"/>
<path transform="translate(686,971)" d="m0 0 7 4 11 11-2 3-13-13-5-4z" fill="#E70135"/>
<path transform="translate(763,567)" d="m0 0 2 1 1 8 2 1v3l3 1-2 7h-2l-2 2-2-17z" fill="#E70135"/>
<path transform="translate(859,533)" d="m0 0h2v2l-2 1 12 2 5 1v2l4 1 1 2-9-3-5-1-16-1 3-2h2l1-3z" fill="#E90136"/>
<path transform="translate(1432,613)" d="m0 0 2 1 2 5 3 5-2 5v6l-2-2-3-13z" fill="#E60134"/>
<path transform="translate(916,212)" d="m0 0 1 3-4 6-8 13-2 6-6 5 2-5 8-14z" fill="#E90136"/>
<path transform="translate(983,607)" d="m0 0h3 1l-1 7-1 4-5 1-4 4 2-5z" fill="#E60135"/>
<path transform="translate(1666,550)" d="m0 0h1l-1 13-5 22h-1l1-13z" fill="#E90136"/>
<path transform="translate(1e3 849)" d="m0 0 5 2 4 2 8 9-2 3-5-6-8-7z" fill="#E30133"/>
<path transform="translate(706,888)" d="m0 0h1l1 6v19l-2 9-1-4v-27z" fill="#E90136"/>
<path transform="translate(91,551)" d="m0 0h2l1 5 4 5-2 2-2 4-3-1-1-6z" fill="#E80135"/>
<path transform="translate(1034,1161)" d="m0 0h6l3 3v14h-3v-5l-1-1-1-8h-3z" fill="#E80135"/>
<path transform="translate(1080,1038)" d="m0 0 3 2-1 6 4 1-2 5h-3l-1 2-2-9z" fill="#E30133"/>
<path transform="translate(959,644)" d="m0 0v3l-4 5-3 3h-2l-1 3h-2l-2 4-5 3v-3l15-14z" fill="#E90136"/>
<path transform="translate(680,1270)" d="m0 0h2l1 7 2 8 4-1-1 6-3 3-4-14z" fill="#E70135"/>
<path transform="translate(381,521)" d="m0 0h9l6 3-4 2-10-1v-2l-4-1z" fill="#E70135"/>
<path transform="translate(1387,856)" d="m0 0 5 1 11 11-2 3v-2l-4-2-2-4-3-1v-2l-5-2z" fill="#E40134"/>
<path transform="translate(1069,770)" d="m0 0 4 1 3 2 2-1 2 2-5 2h-7l-1-3-4-1z" fill="#E80135"/>
<path transform="translate(1102,756)" d="m0 0 4 1 2 2 2 1-7 4-3-1-3-3z" fill="#E80135"/>
<path transform="translate(516,610)" d="m0 0h1l3 15 2 4v7l-2 2-4-19z" fill="#E90136"/>
<path transform="translate(1391,404)" d="m0 0 1 2h2v2l6-2-6 8-2 1-2-1 1-5-1-3z" fill="#E70135"/>
<path transform="translate(834,1214)" d="m0 0 3 1v40h-1l-1-28z" fill="#E90136"/>
<path transform="translate(922,849)" d="m0 0 1 3-7 7-4 2-3 3v-3l10-10z" fill="#E70135"/>
<path transform="translate(1493,521)" d="m0 0h10l4 3-1 1h-11l-1-2-3-1z" fill="#E80135"/>
<path transform="translate(1429,580)" d="m0 0h1l1 14 2 8-1 11h-1l-2-18z" fill="#E90136"/>
<path transform="translate(786,655)" d="m0 0 5 2 4 10h-2l-1 2-6-12z" fill="#E00132"/>
<path transform="translate(856,320)" d="m0 0h2l-1 5-7 15-4-2h2v-2h2l1-5h2l2-9z" fill="#E90136"/>
<path transform="translate(693,1076)" d="m0 0 2 1h2l2-1-2 4-6 5-3-2 3-5h2z" fill="#E50134"/>
<path transform="translate(246,550)" d="m0 0 3 1-2 2-5 1v2l-9 2-2 1v-3l4-2 8-2z" fill="#E70135"/>
<path transform="translate(1887,531)" d="m0 0 5 2 5 6-2 2-8-6z" fill="#E30133"/>
<path transform="translate(280,406)" d="m0 0 5 2-4 6-4 1 1-7h2z" fill="#E90136"/>
<path transform="translate(883,679)" d="m0 0 4 2 9 6 3 3-4-1-9-4-3-5z" fill="#E90136"/>
<path transform="translate(667,561)" d="m0 0h12l8 1v1l-13 1-5-1-5 1 3-1z" fill="#E90136"/>
<path transform="translate(983,1159)" d="m0 0h7l-2 3-15 1-1-2z" fill="#E90136"/>
<path transform="translate(103,531)" d="m0 0 2 1-3 4-3 3-7 5 2-5z" fill="#E00132"/>
<path transform="translate(111,535)" d="m0 0 5 1-2 2-5 2-9 6 2-4 4-2v-2z" fill="#E90136"/>
<path transform="translate(1607,153)" d="m0 0h5l2 3-9 1-7 6h-2v-3l5-3z" fill="#E90136"/>
<path transform="translate(769,596)" d="m0 0 4 2 2-1 1 4-1 4-2-1-1 1-3-3z" fill="#E80135"/>
<path transform="translate(1419,392)" d="m0 0 2 1 1 3h-11l-1-3z" fill="#E90136"/>
<path transform="translate(1699,578)" d="m0 0 3 4 1 5 2 1-1 2 2 1 2 3-1 4-6-12-2-5z" fill="#E90136"/>
<path transform="translate(686,971)" d="m0 0 7 4 7 7-1 2-8-8-5-2-2-2z" fill="#E00132"/>
<path transform="translate(860,661)" d="m0 0 4 2 7 6-1 2-4-1v-2l-4-2z" fill="#E10132"/>
<path transform="translate(1751,553)" d="m0 0h5l-5 5-8 7v-3l4-5z" fill="#E90136"/>
<path transform="translate(1090,881)" d="m0 0h2l-2 6-4 9-2-1 3-8z" fill="#E90136"/>
<path transform="translate(1349,554)" d="m0 0 5 2v1l-11 2-1-2z" fill="#E90136"/>
</svg>
